PathFileType	4	(X/Y/Z)	SUBJ62_0_static_RCNL2025.trc
DataRate	CameraRate	NumFrames	NumMarkers	Units	OrigDataRate	OrigDataStartFrame	OrigNumFrames
100	100	11	25	mm	100	43	85
Frame#	Time	R_Shoulder			L_Shoulder			C7			J_Notch			R_Elbow			L_Elbow			R_Wrist			L_Wrist			R_Asis			L_Asis			Sacral			Thoracic			Sternum			R_Thigh_Lateral			R_Knee_Lateral			R_Shank_Lateral			R_Ankle_Lateral			R_Heel			R_Toe			L_Thigh_Lateral			L_Knee_Lateral			L_Shank_Lateral			L_Ankle_Lateral			L_Heel			L_Toe		
		X1	Y1	Z1	X2	Y2	Z2	X3	Y3	Z3	X4	Y4	Z4	X5	Y5	Z5	X6	Y6	Z6	X7	Y7	Z7	X8	Y8	Z8	X9	Y9	Z9	X10	Y10	Z10	X11	Y11	Z11	X12	Y12	Z12	X13	Y13	Z13	X14	Y14	Z14	X15	Y15	Z15	X16	Y16	Z16	X17	Y17	Z17	X18	Y18	Z18	X19	Y19	Z19	X20	Y20	Z20	X21	Y21	Z21	X22	Y22	Z22	X23	Y23	Z23	X24	Y24	Z24	X25	Y25	Z25
43	0.42000000	-297.681213	1299.540039	-70.245506	-306.180542	1301.176025	-408.205170	-367.910095	1359.225342	-242.466187	-234.938843	1275.476685	-244.698410	-358.992523	1014.627380	12.959245	-327.367767	1014.319641	-506.725372	-293.922516	802.638672	22.952886	-273.766342	801.705933	-509.770294	-241.130478	877.975281	-97.047035	-235.033112	866.434753	-356.828125	-411.867706	884.683960	-234.021210	-421.997772	1162.467041	-240.087631	-213.388504	1076.844971	-240.938492	-351.204010	500.378998	-17.921278	-355.597992	437.737152	-90.178253	-375.293671	260.421783	-47.552940	-373.368225	65.103104	-119.805466	-418.391357	47.163799	-166.025162	-267.409851	47.975571	-122.946999	-356.654999	479.865112	-409.495850	-378.656891	416.834778	-360.505554	-380.168365	224.043808	-394.945343	-370.048645	54.695595	-326.148346	-420.701263	51.315235	-274.859222	-259.733307	39.214191	-328.994202
44	0.43000000	-297.682281	1299.525635	-70.217178	-306.206665	1301.199707	-408.176880	-367.990509	1359.225098	-242.418121	-234.763672	1275.765015	-244.528763	-359.014099	1014.583801	12.963914	-327.452881	1014.293457	-506.769745	-293.912506	802.662720	22.968969	-273.758621	801.709900	-509.770950	-241.127991	877.976257	-97.044624	-235.004333	866.526062	-356.798950	-411.950165	884.693298	-233.945633	-421.982483	1162.447632	-240.111664	-213.358612	1076.905151	-240.916550	-351.248932	500.424164	-17.905460	-355.572479	437.698395	-90.215607	-375.318665	260.393005	-47.540859	-373.512177	65.060028	-119.835915	-418.583679	47.233189	-165.983414	-267.402313	47.978634	-122.964478	-356.708466	479.793976	-409.441589	-378.660065	416.841461	-360.554901	-380.138519	223.999603	-394.993500	-370.124603	54.825157	-326.116272	-420.656189	51.341137	-275.013550	-259.721283	39.249073	-328.997925
45	0.44000000	-297.685242	1299.548950	-70.235565	-306.216095	1301.210205	-408.159302	-367.922485	1359.210449	-242.462540	-234.828751	1275.824463	-244.543320	-358.915771	1014.568970	13.012342	-327.390259	1014.294678	-506.692352	-293.919449	802.621826	23.023355	-273.767365	801.736755	-509.822220	-241.131271	877.959167	-97.062515	-235.020340	866.449219	-356.825470	-411.866852	884.706787	-234.008392	-421.933319	1162.446289	-240.020218	-213.226349	1076.916748	-240.889435	-351.226166	500.412842	-17.944170	-355.564423	437.697723	-90.221527	-375.319763	260.442871	-47.545483	-373.432861	65.060425	-119.790359	-418.492096	47.194881	-166.094849	-267.406128	47.974403	-122.961075	-356.733582	479.801208	-409.457275	-378.661835	416.805939	-360.507141	-380.134521	223.970291	-395.019958	-369.969482	54.743370	-326.202454	-420.640717	51.247845	-274.917908	-259.736176	39.212265	-328.986328
46	0.45000000	-297.644379	1299.542603	-70.206055	-306.222534	1301.205688	-408.141174	-367.910187	1359.206909	-242.470947	-234.789764	1275.791992	-244.464035	-358.898254	1014.562195	13.011295	-327.377228	1014.354919	-506.692841	-293.799728	802.585724	22.996499	-273.728043	801.746918	-509.773270	-241.133194	877.940674	-97.064156	-235.006348	866.506042	-356.799957	-411.852295	884.702820	-234.019470	-421.915741	1162.437256	-240.037476	-213.249649	1076.797974	-240.882660	-351.282074	500.391022	-18.003489	-355.588562	437.709412	-90.181335	-375.264160	260.398163	-47.526836	-373.345215	65.055260	-119.820137	-418.387299	47.152397	-166.036545	-267.388031	47.946522	-122.979446	-356.668304	479.807220	-409.501953	-378.580292	416.852509	-360.499878	-380.160248	224.019653	-394.950134	-370.154938	54.842735	-326.035980	-420.688690	51.279587	-274.868713	-259.657043	39.191715	-329.023285
47	0.46000000	-297.641052	1299.541748	-70.205635	-306.182312	1301.236572	-408.136993	-367.957275	1359.255005	-242.316742	-234.715042	1275.800293	-244.477112	-358.832977	1014.555725	12.971391	-327.339783	1014.383789	-506.725220	-293.748367	802.629822	22.975202	-273.758438	801.754913	-509.768906	-241.024246	877.912476	-97.006882	-235.023697	866.445679	-356.824799	-411.860138	884.669922	-234.013382	-421.914001	1162.426270	-240.044052	-213.268616	1076.817993	-240.816376	-351.253815	500.442993	-18.048389	-355.564697	437.674469	-90.196548	-375.248901	260.388397	-47.538521	-373.327728	65.080559	-119.817406	-418.407318	47.124413	-165.995911	-267.403564	47.971455	-122.962852	-356.677216	479.782166	-409.457489	-378.507935	416.795105	-360.473724	-380.145599	223.987137	-394.971771	-369.987488	54.670540	-326.187134	-420.710602	51.259895	-274.872253	-259.664917	39.171459	-329.001129
48	0.47000000	-297.635376	1299.531738	-70.207321	-306.177277	1301.195312	-408.136505	-367.967316	1359.260254	-242.302170	-234.764679	1275.789551	-244.440491	-358.841003	1014.568054	12.975223	-327.331390	1014.404846	-506.744843	-293.732254	802.631744	22.995248	-273.722412	801.755371	-509.824722	-241.107254	877.940613	-97.036766	-235.032425	866.435120	-356.827118	-411.823090	884.650269	-234.052170	-421.930786	1162.435669	-240.020203	-213.288712	1076.783447	-240.845657	-351.258240	500.451355	-18.027433	-355.538910	437.673218	-90.243095	-375.310120	260.365784	-47.539524	-373.416931	65.044762	-119.868980	-418.472961	47.182606	-166.099716	-267.356750	47.960312	-123.019012	-356.674225	479.807495	-409.495728	-378.583740	416.827393	-360.544830	-380.134399	223.944107	-395.007996	-370.231964	54.914066	-326.176880	-420.646973	51.245346	-274.904816	-259.691833	39.181820	-329.011749
49	0.48000000	-297.675049	1299.476196	-70.186462	-306.226379	1301.233276	-408.126740	-367.964081	1359.258423	-242.307709	-234.734177	1275.829468	-244.409302	-358.762573	1014.516663	13.023832	-327.395874	1014.299744	-506.676727	-293.694733	802.589325	23.092148	-273.718414	801.770813	-509.892838	-241.139740	877.956787	-97.062767	-234.918808	866.455811	-356.788025	-411.871857	884.665710	-233.994949	-421.916931	1162.427368	-240.041336	-213.290146	1076.779663	-240.853149	-351.209137	500.393372	-17.962242	-355.509857	437.677979	-90.256302	-375.241791	260.383514	-47.584267	-373.352509	65.045151	-119.812157	-418.476562	47.178997	-166.111450	-267.361115	47.964783	-123.006805	-356.650726	479.791260	-409.507416	-378.525055	416.810425	-360.486847	-380.153931	223.986649	-394.965912	-370.237122	54.932884	-326.087921	-420.697449	51.238770	-274.885040	-259.679016	39.214600	-329.023987
50	0.49000000	-297.635468	1299.488403	-70.124268	-306.240601	1301.258301	-408.117676	-367.987305	1359.210571	-242.265274	-234.717438	1275.820679	-244.387009	-358.782013	1014.571472	13.063476	-327.381042	1014.360901	-506.692413	-293.684784	802.575439	23.069013	-273.773148	801.805573	-509.827835	-241.021591	877.961792	-97.028038	-234.892822	866.444397	-356.809052	-411.800079	884.661255	-234.059937	-421.960083	1162.349976	-239.974670	-213.274002	1076.802368	-240.877579	-351.199829	500.386505	-17.960230	-355.510590	437.681610	-90.255791	-375.315369	260.436432	-47.536171	-373.462860	65.108398	-119.861076	-418.474579	47.185913	-166.105927	-267.339691	47.941723	-123.038963	-356.600616	479.831665	-409.417419	-378.502075	416.842682	-360.525330	-380.147186	224.018356	-394.997803	-370.002716	54.720413	-326.185425	-420.696533	51.284950	-274.869598	-259.667053	39.205723	-329.035400
51	0.50000000	-297.644775	1299.492310	-70.107773	-306.233521	1301.246704	-408.049866	-367.914062	1359.195068	-242.210999	-234.752777	1275.815552	-244.537079	-358.734650	1014.450623	13.063165	-327.402008	1014.371460	-506.644318	-293.641693	802.614624	23.060645	-273.787109	801.812683	-509.812424	-240.993622	877.921875	-97.006813	-234.899445	866.425598	-356.811859	-411.782806	884.687378	-233.951431	-421.935791	1162.443848	-240.012314	-213.166702	1076.803467	-240.820099	-351.101074	500.401123	-17.999853	-355.498535	437.699921	-90.122971	-375.328949	260.452362	-47.525452	-373.413330	65.134293	-119.777565	-418.500977	47.172474	-166.070160	-267.354034	47.952709	-123.010803	-356.618073	479.796112	-409.400238	-378.492737	416.854431	-360.456818	-380.142517	224.002716	-394.990784	-370.191101	54.912815	-326.113190	-420.648376	51.263046	-274.898102	-259.642944	39.230995	-329.047089
52	0.51000000	-297.606415	1299.448486	-70.129066	-306.240784	1301.253906	-408.050720	-367.967682	1359.209717	-242.281708	-234.765167	1275.798828	-244.531204	-358.715302	1014.435791	13.053236	-327.401550	1014.433960	-506.675964	-293.536270	802.545563	23.081232	-273.804916	801.818817	-509.818771	-240.999069	877.960999	-97.023506	-234.880219	866.476074	-356.781158	-411.790009	884.703918	-233.936371	-421.870544	1162.439819	-239.946106	-213.129044	1076.805054	-240.850998	-351.096863	500.388763	-18.005917	-355.490204	437.712311	-90.130867	-375.256470	260.397400	-47.572544	-373.446960	65.129120	-119.855438	-418.469910	47.155056	-166.053207	-267.387299	47.937523	-123.089561	-356.669098	479.871002	-409.432220	-378.496094	416.887451	-360.473114	-380.158966	224.009979	-394.941040	-370.010162	54.726830	-326.186462	-420.637268	51.351414	-275.033508	-259.662842	39.213226	-329.035400
53	0.52000000	-297.633270	1299.474731	-70.108238	-306.219971	1301.230225	-407.998352	-367.989258	1359.219238	-242.265457	-234.763092	1275.814087	-244.501770	-358.678650	1014.506714	13.109119	-327.394897	1014.405945	-506.661713	-293.524857	802.553131	23.112528	-273.807129	801.846405	-509.810287	-241.128952	877.882812	-96.756577	-234.871704	866.521545	-356.759369	-411.731415	884.660767	-233.986191	-421.850372	1162.427368	-239.965546	-213.124344	1076.859985	-240.797058	-351.151581	500.424683	-17.960218	-355.485046	437.705017	-90.147255	-375.250183	260.409851	-47.547005	-373.465179	65.121117	-119.865044	-418.441345	47.251644	-166.139572	-267.391235	47.954071	-122.986488	-356.564056	479.836212	-409.451965	-378.497772	416.841827	-360.480896	-380.147736	224.008881	-395.003174	-369.931702	54.724724	-326.205200	-420.656494	51.278259	-274.890869	-259.701752	39.256641	-329.006042
